<svg width="554" height="450" viewBox="0 0 554 450" fill="none" xmlns="http://www.w3.org/2000/svg">
<g clip-path="url(#clip0_6_37)">
<path d="M157.871 284.792C157.023 284.474 156.255 283.975 155.622 283.329C154.988 282.683 154.504 281.906 154.203 281.053C153.902 280.2 153.792 279.291 153.88 278.391C153.969 277.49 154.254 276.62 154.715 275.842L140.509 259.049L151.86 257.692L163.611 273.847C164.867 274.708 165.764 276.001 166.132 277.479C166.499 278.957 166.311 280.519 165.604 281.868C164.896 283.217 163.718 284.26 162.293 284.799C160.868 285.338 159.294 285.335 157.871 284.792Z" fill="#FFB6B6"/>
<path d="M99.3827 442.179L106.93 442.178L110.521 413.075L99.3808 413.076L99.3827 442.179Z" fill="#FFB6B6"/>
<path d="M97.4571 439.715L99.5816 439.715L107.876 436.343L112.321 439.714H112.322C114.834 439.715 117.243 440.712 119.02 442.488C120.796 444.264 121.794 446.672 121.795 449.184V449.491L97.4576 449.492L97.4571 439.715Z" fill="#2F2E41"/>
<path d="M128.631 437.424L135.994 439.085L145.909 411.488L135.043 409.036L128.631 437.424Z" fill="#FFB6B6"/>
<path d="M127.296 434.597L129.368 435.065L138.202 433.602L141.795 437.869C144.246 438.423 146.377 439.927 147.718 442.05C149.06 444.173 149.503 446.742 148.949 449.192L148.882 449.492L125.142 444.134L127.296 434.597Z" fill="#2F2E41"/>
<path d="M85.5647 292.479L92.39 368.922C92.39 368.922 89.8326 414.815 98.0847 430.964H110.052L115.978 364.731L116.722 320.275L142.38 357.781L126.037 429.881L140.767 431.197L167.286 352.952L138.151 279.497L85.5647 292.479Z" fill="#2F2E41"/>
<path d="M92.7129 170.746C102.434 170.746 110.315 162.868 110.315 153.15C110.315 143.432 102.434 135.554 92.7129 135.554C82.9917 135.554 75.1111 143.432 75.1111 153.15C75.1111 162.868 82.9917 170.746 92.7129 170.746Z" fill="#FFB8B8"/>
<path d="M129.664 187.514L109.215 181.32L106.554 173.139L84.6245 176.698L79.9651 184.684L64.8821 198.704L82.5536 278.579L82.0187 296.024C82.0187 296.024 93.3289 301.114 142.38 289.395C142.968 289.254 141.736 288.639 141.736 288.639L129.664 187.514Z" fill="#3F3D56"/>
<path d="M149.085 275.561L125.114 243.472L118.318 186.603L118.516 186.507C120.372 185.614 122.421 185.196 124.479 185.291C126.537 185.386 128.538 185.991 130.304 187.051C132.07 188.111 133.544 189.594 134.595 191.365C135.645 193.137 136.238 195.141 136.321 197.199L137.734 232.341L161.541 263.747L149.085 275.561Z" fill="#3F3D56"/>
<path d="M74.4097 163.134C74.287 162.967 74.1656 162.798 74.0453 162.628C73.9969 162.73 73.9584 162.836 73.9031 162.936L74.4097 163.134Z" fill="#2F2E41"/>
<path d="M110.222 140.279C109.046 137.717 106.948 135.691 104.345 134.604C101.766 133.564 98.8837 133.567 96.3063 134.611C93.9793 133.142 91.3938 131.976 88.6708 131.832C85.9479 131.688 83.069 132.698 81.391 134.921C81.0163 135.507 80.5907 136.06 80.1191 136.572C78.7703 137.821 76.7204 137.641 74.9276 137.386C75.7317 138.074 76.5361 138.763 77.3406 139.452C76.3672 139.707 75.3937 139.961 74.4202 140.215C75.5562 140.904 76.6921 141.592 77.8279 142.281C74.5302 144.26 73.0314 148.578 73.4273 152.501C73.8018 156.214 75.5953 159.61 77.7392 162.628C78.5944 160.824 78.4102 158.665 78.396 156.633C78.3813 154.486 78.7613 152.048 80.4823 150.848C81.6432 150.039 83.136 150.003 84.536 150.01C91.5976 150.049 98.6512 150.489 105.663 151.329C106.614 151.37 107.542 151.639 108.368 152.113C109.918 153.17 110.22 155.353 110.376 157.267C111.195 154.106 111.596 150.851 111.569 147.586C111.637 145.083 111.179 142.594 110.222 140.279Z" fill="#2F2E41"/>
<path d="M108.492 353.875C123.792 353.875 136.196 341.476 136.196 326.18C136.196 310.885 123.792 298.486 108.492 298.486C93.1909 298.486 80.7874 310.885 80.7874 326.18C80.7874 341.476 93.1909 353.875 108.492 353.875Z" fill="#F0F0F0"/>
<path d="M108.491 297.87C107.067 297.871 105.645 297.977 104.237 298.19C103.517 298.295 102.815 298.43 102.119 298.597C97.0086 299.774 92.3255 302.348 88.5927 306.032C84.86 309.715 82.2244 314.363 80.9799 319.456C79.7355 324.549 79.9313 329.888 81.5453 334.877C83.1594 339.866 86.1282 344.308 90.1207 347.708C90.5947 348.108 91.0748 348.496 91.5735 348.865C95.1677 351.544 99.3469 353.331 103.767 354.08C108.187 354.829 112.722 354.518 116.999 353.172C121.275 351.827 125.171 349.485 128.365 346.34C131.559 343.196 133.961 339.338 135.372 335.084C136.783 330.83 137.164 326.302 136.482 321.872C135.801 317.443 134.077 313.238 131.452 309.605C128.828 305.971 125.378 303.013 121.386 300.973C117.394 298.933 112.975 297.869 108.491 297.87ZM108.491 353.259C102.732 353.266 97.1214 351.426 92.4847 348.01C91.9799 347.641 91.4936 347.259 91.0195 346.853C87.1298 343.573 84.2436 339.263 82.692 334.418C81.1405 329.573 80.9863 324.389 82.2473 319.461C83.5083 314.532 86.1334 310.059 89.8214 306.554C93.5094 303.048 98.1111 300.653 103.099 299.643C103.788 299.501 104.477 299.39 105.179 299.304C106.278 299.168 107.384 299.1 108.491 299.101C115.676 299.101 122.566 301.954 127.646 307.032C132.726 312.111 135.58 318.998 135.58 326.18C135.58 333.362 132.726 340.25 127.646 345.328C122.566 350.406 115.676 353.259 108.491 353.259Z" fill="#3F3D56"/>
<path d="M94.9473 320.641H122.036C123.056 320.641 123.883 319.815 123.883 318.795C123.883 317.775 123.056 316.949 122.036 316.949H94.9473C93.9272 316.949 93.1003 317.775 93.1003 318.795C93.1003 319.815 93.9272 320.641 94.9473 320.641Z" fill="#EF233C"/>
<path d="M94.9473 328.027H122.036C123.056 328.027 123.883 327.2 123.883 326.18C123.883 325.161 123.056 324.334 122.036 324.334H94.9473C93.9272 324.334 93.1003 325.161 93.1003 326.18C93.1003 327.2 93.9272 328.027 94.9473 328.027Z" fill="#EF233C"/>
<path d="M94.9473 335.412H122.036C123.056 335.412 123.883 334.585 123.883 333.566C123.883 332.546 123.056 331.719 122.036 331.719H94.9473C93.9272 331.719 93.1003 332.546 93.1003 333.566C93.1003 334.585 93.9272 335.412 94.9473 335.412Z" fill="#EF233C"/>
<path d="M110.264 306.347C109.37 306.209 108.517 305.877 107.765 305.373C107.013 304.87 106.38 304.208 105.912 303.434C105.443 302.66 105.15 301.792 105.054 300.893C104.957 299.993 105.059 299.083 105.352 298.227L88.0217 284.679L98.8589 281.04L113.654 294.463C115.06 295.051 116.202 296.133 116.862 297.506C117.523 298.878 117.657 300.445 117.24 301.91C116.822 303.375 115.881 304.636 114.595 305.454C113.31 306.271 111.769 306.589 110.264 306.347Z" fill="#FFB6B6"/>
<path d="M75.5544 198.478L64.8821 198.704C62.7885 200.632 61.1225 202.977 59.9916 205.588C58.8606 208.199 58.2899 211.018 58.3163 213.864V264.273L98.3629 297.743L111.312 285.208L81.5052 252.745L75.5544 198.478Z" fill="#3F3D56"/>
<path d="M554 78.5126H157.608V332.292H554V78.5126Z" fill="#E6E6E6"/>
<path d="M542.665 110.343H168.943V317.278H542.665V110.343Z" fill="white"/>
<path d="M553.831 78.288H157.439V95.1223H553.831V78.288Z" fill="#EF233C"/>
<path d="M169.953 90.0147C171.677 90.0147 173.075 88.6178 173.075 86.8946C173.075 85.1714 171.677 83.7745 169.953 83.7745C168.23 83.7745 166.832 85.1714 166.832 86.8946C166.832 88.6178 168.23 90.0147 169.953 90.0147Z" fill="white"/>
<path d="M181.801 90.0147C183.525 90.0147 184.922 88.6178 184.922 86.8946C184.922 85.1714 183.525 83.7745 181.801 83.7745C180.077 83.7745 178.68 85.1714 178.68 86.8946C178.68 88.6178 180.077 90.0147 181.801 90.0147Z" fill="white"/>
<path d="M193.648 90.0147C195.372 90.0147 196.769 88.6178 196.769 86.8946C196.769 85.1714 195.372 83.7745 193.648 83.7745C191.924 83.7745 190.527 85.1714 190.527 86.8946C190.527 88.6178 191.924 90.0147 193.648 90.0147Z" fill="white"/>
<path d="M395.53 131.814H315.506V176.955H395.53V131.814Z" fill="#EF233C"/>
<path d="M395.53 189.526H315.506V238.095H395.53V189.526Z" fill="#E6E6E6"/>
<path d="M508.707 131.814H412.678V203.281H508.707V131.814Z" fill="#E6E6E6"/>
<path d="M508.707 224.34H412.678V295.807H508.707V224.34Z" fill="#EF233C"/>
<path d="M299.387 131.814H203.358V203.281H299.387V131.814Z" fill="#E6E6E6"/>
<path d="M382.445 49.0144L355.089 151.887L356.343 152.22L383.442 50.3105L382.445 49.0144Z" fill="#3F3D56"/>
<path d="M461.405 259.462L434.306 361.372L435.303 362.668L462.659 259.795L461.405 259.462Z" fill="#3F3D56"/>
<path d="M297.495 246.572H205.148C204.577 246.572 204.029 246.345 203.624 245.941C203.22 245.537 202.993 244.989 202.993 244.418C202.993 243.847 203.22 243.299 203.624 242.895C204.029 242.491 204.577 242.264 205.148 242.264H297.495C298.067 242.264 298.615 242.491 299.019 242.895C299.423 243.299 299.65 243.847 299.65 244.418C299.65 244.989 299.423 245.537 299.019 245.941C298.615 246.345 298.067 246.572 297.495 246.572Z" fill="#E6E6E6"/>
<path d="M297.495 234.264H205.148C204.577 234.264 204.029 234.037 203.624 233.633C203.22 233.229 202.993 232.681 202.993 232.109C202.993 231.538 203.22 230.99 203.624 230.586C204.029 230.182 204.577 229.955 205.148 229.955H297.495C298.067 229.955 298.615 230.182 299.019 230.586C299.423 230.99 299.65 231.538 299.65 232.109C299.65 232.681 299.423 233.229 299.019 233.633C298.615 234.037 298.067 234.264 297.495 234.264Z" fill="#E6E6E6"/>
<path d="M297.495 258.881H205.148C204.577 258.881 204.029 258.654 203.624 258.25C203.22 257.846 202.993 257.298 202.993 256.727C202.993 256.156 203.22 255.608 203.624 255.204C204.029 254.8 204.577 254.573 205.148 254.573H297.495C298.067 254.573 298.615 254.8 299.019 255.204C299.423 255.608 299.65 256.156 299.65 256.727C299.65 257.298 299.423 257.846 299.019 258.25C298.615 258.654 298.067 258.881 297.495 258.881Z" fill="#E6E6E6"/>
<path d="M297.495 271.19H205.148C204.577 271.19 204.029 270.963 203.624 270.559C203.22 270.155 202.993 269.607 202.993 269.036C202.993 268.464 203.22 267.916 203.624 267.512C204.029 267.109 204.577 266.882 205.148 266.882H297.495C298.067 266.882 298.615 267.109 299.019 267.512C299.423 267.916 299.65 268.464 299.65 269.036C299.65 269.607 299.423 270.155 299.019 270.559C298.615 270.963 298.067 271.19 297.495 271.19Z" fill="#E6E6E6"/>
<path d="M297.495 283.498H205.148C204.577 283.498 204.029 283.271 203.624 282.867C203.22 282.463 202.993 281.916 202.993 281.344C202.993 280.773 203.22 280.225 203.624 279.821C204.029 279.417 204.577 279.19 205.148 279.19H297.495C298.067 279.19 298.615 279.417 299.019 279.821C299.423 280.225 299.65 280.773 299.65 281.344C299.65 281.916 299.423 282.463 299.019 282.867C298.615 283.271 298.067 283.498 297.495 283.498Z" fill="#E6E6E6"/>
<path d="M297.495 295.807H205.148C204.577 295.807 204.029 295.58 203.624 295.176C203.22 294.772 202.993 294.224 202.993 293.653C202.993 293.082 203.22 292.534 203.624 292.13C204.029 291.726 204.577 291.499 205.148 291.499H297.495C298.067 291.499 298.615 291.726 299.019 292.13C299.423 292.534 299.65 293.082 299.65 293.653C299.65 294.224 299.423 294.772 299.019 295.176C298.615 295.58 298.067 295.807 297.495 295.807Z" fill="#E6E6E6"/>
<path d="M393.689 258.881H317.348C316.777 258.881 316.229 258.654 315.825 258.25C315.421 257.846 315.194 257.298 315.194 256.727C315.194 256.156 315.421 255.608 315.825 255.204C316.229 254.8 316.777 254.573 317.348 254.573H393.689C394.26 254.573 394.808 254.8 395.212 255.204C395.616 255.608 395.843 256.156 395.843 256.727C395.843 257.298 395.616 257.846 395.212 258.25C394.808 258.654 394.26 258.881 393.689 258.881Z" fill="#E6E6E6"/>
<path d="M393.689 271.19H317.348C316.777 271.19 316.229 270.963 315.825 270.559C315.421 270.155 315.194 269.607 315.194 269.036C315.194 268.464 315.421 267.916 315.825 267.512C316.229 267.109 316.777 266.882 317.348 266.882H393.689C394.26 266.882 394.808 267.109 395.212 267.512C395.616 267.916 395.843 268.464 395.843 269.036C395.843 269.607 395.616 270.155 395.212 270.559C394.808 270.963 394.26 271.19 393.689 271.19Z" fill="#E6E6E6"/>
<path d="M393.689 283.498H317.348C316.777 283.498 316.229 283.271 315.825 282.867C315.421 282.463 315.194 281.916 315.194 281.344C315.194 280.773 315.421 280.225 315.825 279.821C316.229 279.417 316.777 279.19 317.348 279.19H393.689C394.26 279.19 394.808 279.417 395.212 279.821C395.616 280.225 395.843 280.773 395.843 281.344C395.843 281.916 395.616 282.463 395.212 282.867C394.808 283.271 394.26 283.498 393.689 283.498Z" fill="#E6E6E6"/>
<path d="M393.689 295.807H317.348C316.777 295.807 316.229 295.58 315.825 295.176C315.421 294.772 315.194 294.224 315.194 293.653C315.194 293.082 315.421 292.534 315.825 292.13C316.229 291.726 316.777 291.499 317.348 291.499H393.689C394.26 291.499 394.808 291.726 395.212 292.13C395.616 292.534 395.843 293.082 395.843 293.653C395.843 294.224 395.616 294.772 395.212 295.176C394.808 295.58 394.26 295.807 393.689 295.807Z" fill="#E6E6E6"/>
<path d="M384.301 56.0046C399.602 56.0046 412.006 43.6053 412.006 28.31C412.006 13.0147 399.602 0.615448 384.301 0.615448C369.001 0.615448 356.597 13.0147 356.597 28.31C356.597 43.6053 369.001 56.0046 384.301 56.0046Z" fill="#F0F0F0"/>
<path d="M384.301 6.56197e-07C382.877 0.000170169 381.455 0.107144 380.047 0.320025C379.327 0.424648 378.625 0.560016 377.929 0.726214C372.818 1.9039 368.135 4.47799 364.403 8.16127C360.67 11.8446 358.034 16.4922 356.79 21.5856C355.545 26.679 355.741 32.0179 357.355 37.0066C358.969 41.9953 361.938 46.4376 365.931 49.8379C366.405 50.2379 366.885 50.6256 367.383 50.9949C370.978 53.6738 375.157 55.4611 379.577 56.2099C383.997 56.9587 388.532 56.6475 392.808 55.3019C397.085 53.9563 400.98 51.6148 404.175 48.4701C407.369 45.3254 409.771 41.4673 411.182 37.2135C412.593 32.9596 412.974 28.4316 412.292 24.002C411.611 19.5724 409.887 15.3678 407.262 11.7344C404.638 8.10093 401.188 5.14244 397.196 3.10238C393.204 1.06233 388.785 -0.0009643 384.301 6.56197e-07ZM384.301 55.3891C378.542 55.3953 372.931 53.5554 368.295 50.1395C367.79 49.7702 367.303 49.3886 366.829 48.9824C362.94 45.7023 360.054 41.3927 358.502 36.5477C356.95 31.7028 356.796 26.5188 358.057 21.5904C359.318 16.6619 361.943 12.1885 365.631 8.68323C369.319 5.17798 373.921 2.78282 378.908 1.77245C379.598 1.6309 380.287 1.52012 380.989 1.43396C382.088 1.29793 383.194 1.23011 384.301 1.23087C391.486 1.23087 398.376 4.08384 403.456 9.16216C408.536 14.2405 411.39 21.1282 411.39 28.31C411.39 35.4918 408.536 42.3795 403.456 47.4578C398.376 52.5361 391.486 55.3891 384.301 55.3891Z" fill="#3F3D56"/>
<path d="M370.757 22.7711L397.846 22.7711C398.866 22.7711 399.693 21.9445 399.693 20.9248C399.693 19.9051 398.866 19.0785 397.846 19.0785L370.757 19.0785C369.737 19.0785 368.91 19.9051 368.91 20.9248C368.91 21.9445 369.737 22.7711 370.757 22.7711Z" fill="#EF233C"/>
<path d="M370.757 30.1563L397.846 30.1563C398.866 30.1563 399.693 29.3297 399.693 28.31C399.693 27.2903 398.866 26.4637 397.846 26.4637L370.757 26.4637C369.737 26.4637 368.91 27.2903 368.91 28.31C368.91 29.3297 369.737 30.1563 370.757 30.1563Z" fill="#EF233C"/>
<path d="M370.757 37.5415H397.846C398.866 37.5415 399.693 36.7149 399.693 35.6952C399.693 34.6755 398.866 33.8489 397.846 33.8489H370.757C369.737 33.8489 368.91 34.6755 368.91 35.6952C368.91 36.7149 369.737 37.5415 370.757 37.5415Z" fill="#EF233C"/>
<path d="M431.091 414.187C446.391 414.187 458.795 401.788 458.795 386.493C458.795 371.198 446.391 358.798 431.091 358.798C415.79 358.798 403.386 371.198 403.386 386.493C403.386 401.788 415.79 414.187 431.091 414.187Z" fill="#F0F0F0"/>
<path d="M431.091 358.183C429.667 358.183 428.244 358.29 426.836 358.503C426.116 358.608 425.414 358.743 424.719 358.909C419.608 360.087 414.925 362.661 411.192 366.344C407.459 370.027 404.823 374.675 403.579 379.769C402.335 384.862 402.53 390.201 404.144 395.19C405.758 400.178 408.727 404.621 412.72 408.021C413.194 408.421 413.674 408.809 414.173 409.178C417.767 411.857 421.946 413.644 426.366 414.393C430.786 415.142 435.321 414.83 439.598 413.485C443.874 412.139 447.77 409.798 450.964 406.653C454.158 403.508 456.56 399.65 457.971 395.396C459.382 391.143 459.763 386.614 459.081 382.185C458.4 377.755 456.676 373.551 454.052 369.917C451.427 366.284 447.977 363.325 443.985 361.285C439.993 359.245 435.574 358.182 431.091 358.183ZM431.091 413.572C425.331 413.578 419.721 411.738 415.084 408.322C414.579 407.953 414.093 407.572 413.619 407.165C409.729 403.885 406.843 399.576 405.291 394.731C403.74 389.886 403.585 384.702 404.846 379.773C406.107 374.845 408.732 370.371 412.42 366.866C416.109 363.361 420.71 360.966 425.698 359.955C426.387 359.814 427.077 359.703 427.778 359.617C428.877 359.481 429.983 359.413 431.091 359.414C438.275 359.414 445.165 362.267 450.245 367.345C455.325 372.423 458.179 379.311 458.179 386.493C458.179 393.675 455.325 400.562 450.245 405.641C445.165 410.719 438.275 413.572 431.091 413.572Z" fill="#3F3D56"/>
<path d="M417.546 380.954H444.635C445.655 380.954 446.482 380.127 446.482 379.108C446.482 378.088 445.655 377.261 444.635 377.261H417.546C416.526 377.261 415.699 378.088 415.699 379.108C415.699 380.127 416.526 380.954 417.546 380.954Z" fill="#EF233C"/>
<path d="M417.546 388.339H444.635C445.655 388.339 446.482 387.513 446.482 386.493C446.482 385.473 445.655 384.647 444.635 384.647H417.546C416.526 384.647 415.699 385.473 415.699 386.493C415.699 387.513 416.526 388.339 417.546 388.339Z" fill="#EF233C"/>
<path d="M417.546 395.724H444.635C445.655 395.724 446.482 394.898 446.482 393.878C446.482 392.858 445.655 392.032 444.635 392.032H417.546C416.526 392.032 415.699 392.858 415.699 393.878C415.699 394.898 416.526 395.724 417.546 395.724Z" fill="#EF233C"/>
<path d="M213.928 450H0.73305C0.539003 449.999 0.3531 449.922 0.216087 449.785C0.0790736 449.647 0.0021286 449.461 0.0021286 449.267C0.0021286 449.073 0.0790736 448.887 0.216087 448.75C0.3531 448.612 0.539003 448.535 0.73305 448.534H213.928C214.122 448.535 214.308 448.612 214.445 448.75C214.582 448.887 214.659 449.073 214.659 449.267C214.659 449.461 214.582 449.647 214.445 449.785C214.308 449.922 214.122 449.999 213.928 450Z" fill="#CACACA"/>
</g>
<defs>
<clipPath id="clip0_6_37">
<rect width="554" height="450" fill="white"/>
</clipPath>
</defs>
</svg>
